<svg width="455" height="455" viewBox="0 0 455 455" fill="none" xmlns="http://www.w3.org/2000/svg">
<rect width="455" height="455" fill="#3F3F3F"/>
<rect width="455" height="455" fill="#0F172A"/>
<path d="M40 81L40 39L202.47 39C216.277 39 227.47 50.1929 227.47 64V71C227.47 76.5228 222.992 81 217.47 81L40 81Z" fill="#D9D9D9"/>
<path d="M40.1298 39.395L82.1298 39.395L82.1298 216.865C82.1298 222.387 77.6526 226.865 72.1298 226.865H65.1298C51.3226 226.865 40.1298 215.672 40.1298 201.865L40.1298 39.395Z" fill="#D9D9D9"/>
<path d="M372.34 237C372.34 231.477 376.817 227 382.34 227H389.34C403.147 227 414.34 238.193 414.34 252V414.47H372.34V237Z" fill="#D9D9D9"/>
<path d="M252 414.865C238.193 414.865 227 403.672 227 389.865V382.865C227 377.342 231.477 372.865 237 372.865L414.47 372.865V414.865L252 414.865Z" fill="#D9D9D9"/>
<circle cx="182.5" cy="182.5" r="22.5" fill="#D9D9D9"/>
<circle cx="227.5" cy="227.5" r="22.5" fill="#D9D9D9"/>
<circle cx="272.5" cy="272.5" r="22.5" fill="#D9D9D9"/>
</svg>
